<?xml version="1.0" encoding="UTF-8"?>
<svg version="1.1" xmlns="http://www.w3.org/2000/svg" width="500" height="234">
<path d="M0 0 C1.38106274 0.00056567 2.76212608 0.00024451 4.14318848 -0.00088501 C7.85315751 -0.00145343 11.56299439 0.0102171 15.27293301 0.02426291 C19.16463469 0.03685641 23.05634017 0.0379475 26.94805908 0.04031372 C34.30004314 0.04650336 41.65196695 0.06287974 49.00392461 0.0830127 C57.38130223 0.1054505 65.75868289 0.11638485 74.13608313 0.12640357 C91.35280106 0.1472485 108.56946055 0.18237498 125.78613281 0.22705078 C125.78613281 1.21705078 125.78613281 2.20705078 125.78613281 3.22705078 C125.16770508 3.80970703 124.54927734 4.39236328 123.91210938 4.99267578 C121.18015998 7.86392071 120.70195032 10.13371022 119.77050781 13.97705078 C119.59750153 14.67489182 119.42449524 15.37273285 119.24624634 16.09172058 C118.6618615 18.46691201 118.09884838 20.84663931 117.53613281 23.22705078 C117.12250138 24.93340997 116.70791738 26.63953847 116.29248047 28.34545898 C115.06470995 33.41155576 113.85997773 38.48294779 112.65808105 43.55523682 C111.69668593 47.60371569 110.7287656 51.65060191 109.75976562 55.69726562 C107.73420473 64.15921186 105.72061089 72.62396414 103.71284485 81.09014893 C103.16096728 83.41524817 102.60763738 85.73999812 102.05407715 88.06469727 C101.17292171 91.76780726 100.29789526 95.47231722 99.42737961 99.17794228 C99.10177934 100.56018265 98.77428143 101.94197755 98.44478226 103.32329369 C97.98999196 105.2316172 97.5429141 107.14177378 97.09619141 109.05200195 C96.84211517 110.1282634 96.58803894 111.20452484 96.32626343 112.31340027 C95.82126108 115.03755683 95.76246889 117.46901153 95.78613281 120.22705078 C94.78613281 122.53955078 94.78613281 122.53955078 93.78613281 124.22705078 C91.96142578 124.02563477 91.96142578 124.02563477 89.78613281 123.22705078 C88.32568359 121.16088867 88.32568359 121.16088867 86.98144531 118.44970703 C86.48 117.46035156 85.97855469 116.47099609 85.46191406 115.45166016 C84.95015625 114.40816406 84.43839844 113.36466797 83.91113281 112.28955078 C78.05550845 99.45338151 78.05550845 99.45338151 69.78613281 88.22705078 C66.6351983 87.37067646 63.94658817 87.42674193 60.78613281 88.22705078 C57.51074549 90.73517217 55.24359576 93.93858318 52.78613281 97.22705078 C51.91326465 98.33912965 51.03677413 99.44837214 50.15722656 100.55517578 C48.27524881 102.9274305 46.40636589 105.30902901 44.54785156 107.69970703 C34.76152927 120.25165433 34.76152927 120.25165433 31.78613281 123.22705078 C29.37888719 123.32544246 26.99953377 123.36006958 24.59179688 123.35302734 C23.83890381 123.35489548 23.08601074 123.35676361 22.31030273 123.35868835 C20.66952101 123.36270201 19.02873367 123.36476807 17.38794708 123.36515045 C13.90107285 123.36855527 10.41438689 123.38990666 6.92757797 123.41038132 C0.42955896 123.44845327 -6.06826313 123.47966728 -12.56640625 123.47753906 C-17.08063216 123.47675204 -21.59417529 123.50011516 -26.10822296 123.53942108 C-27.82895081 123.54988801 -29.54975742 123.55139998 -31.27050018 123.54376984 C-33.68173494 123.53414738 -36.09090478 123.55532949 -38.50195312 123.58349609 C-39.21176331 123.57329941 -39.92157349 123.56310272 -40.65289307 123.55259705 C-44.47401136 123.63252836 -46.12318556 124.15582786 -49.16461182 126.5446167 C-51.49965375 129.14635145 -51.49965375 129.14635145 -51.71386719 132.78955078 C-51.20073814 136.31731298 -50.7519881 137.78293435 -48.21386719 140.22705078 C-44.54411437 141.45030172 -41.1552395 141.38254354 -37.33349609 141.38818359 C-36.53154312 141.3931485 -35.72959015 141.3981134 -34.90333557 141.40322876 C-32.2490249 141.41783979 -29.59477398 141.42465037 -26.94042969 141.43017578 C-25.09581501 141.43592781 -23.25120034 141.44168553 -21.40658569 141.44744873 C-17.53798138 141.45795549 -13.66939783 141.46380039 -9.80078125 141.46728516 C-4.84528598 141.47277128 0.10993472 141.49680319 5.06534386 141.52525711 C8.87605592 141.54388593 12.68670185 141.54908921 16.4974556 141.55062103 C18.32429125 141.55364719 20.15112575 141.5616745 21.97791672 141.57480621 C24.534481 141.59187299 27.09037442 141.58998512 29.64697266 141.58349609 C30.77710533 141.59731827 30.77710533 141.59731827 31.93006897 141.61141968 C37.35649296 141.56830363 40.64261939 140.39192708 44.4519043 136.54467773 C44.93216064 135.94099365 45.41241699 135.33730957 45.90722656 134.71533203 C46.72223633 133.70116211 46.72223633 133.70116211 47.55371094 132.66650391 C48.10478516 131.96460938 48.65585938 131.26271484 49.22363281 130.53955078 C49.77083984 129.85699219 50.31804687 129.17443359 50.88183594 128.47119141 C54.61306999 123.79500577 58.22127242 119.03088319 61.78613281 114.22705078 C63.63769531 114.46850586 63.63769531 114.46850586 65.78613281 115.22705078 C67.05957031 117.01098633 67.05957031 117.01098633 68.16113281 119.36376953 C68.58322021 120.24121826 69.00530762 121.11866699 69.44018555 122.02270508 C69.88434814 122.97701416 70.32851074 123.93132324 70.78613281 124.91455078 C71.75291148 126.91613517 72.72307325 128.91608837 73.69628906 130.91455078 C74.45063232 132.46916016 74.45063232 132.46916016 75.22021484 134.05517578 C77.7774401 139.23501216 80.48039077 144.33130968 83.22363281 149.41455078 C83.71927734 150.35194092 84.21492187 151.28933105 84.72558594 152.25512695 C85.19802734 153.1262915 85.67046875 153.99745605 86.15722656 154.89501953 C86.56900146 155.66096436 86.98077637 156.42690918 87.4050293 157.21606445 C88.96552286 159.48825563 90.44766295 160.77915783 92.78613281 162.22705078 C96.05401629 162.63553622 97.98333917 162.68505806 100.86613464 161.04037476 C103.29780326 158.7438085 103.71836601 157.07593276 104.50610352 153.83886719 C104.78351883 152.73145172 105.06093414 151.62403625 105.34675598 150.48306274 C105.63225815 149.27709442 105.91776031 148.0711261 106.21191406 146.82861328 C106.52259323 145.56987396 106.8332724 144.31113464 107.15336609 143.01425171 C107.98460394 139.64528104 108.79727548 136.27209223 109.60620117 132.89770508 C110.40445858 129.58159261 111.22001696 126.26975552 112.03417969 122.95751953 C113.80767309 115.72755047 115.55536548 108.49149 117.29779816 101.25398254 C118.13898143 97.76248121 118.9829429 94.27165142 119.82666016 90.78076172 C121.48207723 83.93006911 123.13498078 77.07877273 124.78613281 70.22705078 C125.77613281 70.22705078 126.76613281 70.22705078 127.78613281 70.22705078 C129.76613281 86.39705078 131.74613281 102.56705078 133.78613281 119.22705078 C135.76613281 118.56705078 137.74613281 117.90705078 139.78613281 117.22705078 C144.56299411 117.47846453 147.9878643 118.27284194 151.78613281 121.22705078 C154.65959601 125.2017651 155.60002162 129.16309827 156.41113281 133.91455078 C157.15179798 138.70635057 157.15179798 138.70635057 158.78613281 143.22705078 C159.77613281 143.22705078 160.76613281 143.22705078 161.78613281 143.22705078 C162.05469086 142.26651543 162.05469086 142.26651543 162.32867432 141.28657532 C164.19645839 134.61524719 166.08092538 127.94879477 167.97509766 121.28491211 C168.67957584 118.79816571 169.37980839 116.31021243 170.07568359 113.82104492 C171.07736079 110.24087057 172.09428663 106.66533135 173.11425781 103.09033203 C173.57545013 101.42288689 173.57545013 101.42288689 174.04595947 99.72175598 C175.80878937 93.60667717 177.36990478 88.91122995 182.53613281 84.85205078 C186.20467846 83.83301032 189.25177405 83.94949358 192.78613281 85.22705078 C198.65455883 89.41535483 202.97600473 95.81520024 207.31469727 101.51098633 C208.20934944 102.68205186 209.1270147 103.83571657 210.06079102 104.97583008 C211.78613281 107.22705078 211.78613281 107.22705078 213.82983398 110.53491211 C216.79969023 115.02752241 219.75137132 119.27926987 225.08334351 120.94448853 C231.51862278 122.01585581 237.97831554 121.75237816 244.47363281 121.53955078 C246.44689776 121.52253289 248.42022286 121.51141461 250.39355469 121.50634766 C255.19447505 121.4813017 259.98753391 121.37632072 264.78613281 121.22705078 C264.05946411 122.39530396 264.05946411 122.39530396 263.31811523 123.5871582 C261.83597565 126.14116224 261.34349835 127.65013742 261.09863281 130.53955078 C260.99550781 131.75642578 260.89238281 132.97330078 260.78613281 134.22705078 C263.43380823 131.57937536 263.6948361 129.00702993 264.51660156 125.41845703 C266.43346105 122.10966265 269.25437426 121.19568019 272.78613281 120.22705078 C275.56436339 119.87150342 278.01825293 119.6556466 280.78613281 119.66455078 C281.84006226 119.66491333 281.84006226 119.66491333 282.9152832 119.6652832 C288.1294964 119.83858358 291.15667975 120.85386934 294.71972656 124.62158203 C297.18951574 128.33983607 297.08422618 131.90469693 296.78613281 136.22705078 C294.96146827 140.45258972 292.92071674 142.28845117 288.78613281 144.22705078 C285.77682215 144.65637862 282.8212806 144.64639547 279.78613281 144.60205078 C278.99207031 144.61365234 278.19800781 144.62525391 277.37988281 144.63720703 C272.60963451 144.61335579 269.77175943 144.08039711 265.78613281 141.22705078 C265.12613281 141.22705078 264.46613281 141.22705078 263.78613281 141.22705078 C264.11613281 142.21705078 264.44613281 143.20705078 264.78613281 144.22705078 C257.91771567 144.30324111 251.04940791 144.35570963 244.18066406 144.3918457 C241.84501065 144.40691339 239.50938545 144.42737127 237.17382812 144.45336914 C233.81275462 144.48984036 230.4520559 144.50679768 227.09082031 144.52001953 C226.04997284 144.53550339 225.00912537 144.55098724 223.93673706 144.56694031 C217.30405628 144.56847302 212.69952344 143.942288 207.66113281 139.24658203 C207.04238281 138.51826172 206.42363281 137.78994141 205.78613281 137.03955078 C205.11195313 136.25322266 204.43777344 135.46689453 203.74316406 134.65673828 C201.39916073 131.74661838 199.21197803 128.74985479 197.11035156 125.66064453 C196.67335938 125.18755859 196.23636719 124.71447266 195.78613281 124.22705078 C194.79613281 124.22705078 193.80613281 124.22705078 192.78613281 124.22705078 C192.66238281 124.99017578 192.53863281 125.75330078 192.41113281 126.53955078 C191.78613281 129.22705078 191.78613281 129.22705078 189.78613281 132.22705078 C189.29154019 133.58706467 188.84914505 134.96660351 188.44506836 136.35620117 C188.2010881 137.18459 187.95710785 138.01297882 187.70573425 138.86647034 C187.44738297 139.76018845 187.18903168 140.65390656 186.92285156 141.57470703 C186.35992909 143.47907148 185.79677032 145.3833661 185.23339844 147.28759766 C184.35462387 150.2793423 183.47877337 153.27188274 182.60766602 156.26586914 C181.76259036 159.16296246 180.90585653 162.05642067 180.04785156 164.94970703 C179.79557297 165.82925552 179.54329437 166.70880402 179.28337097 167.61500549 C174.35560696 184.15103107 174.35560696 184.15103107 167.78613281 188.22705078 C163.29047515 189.41458299 159.739948 189.6130357 155.48535156 187.48095703 C149.33601757 182.94317264 146.8324972 175.68835343 145.23535156 168.49658203 C144.58027709 163.72877913 144.6651512 159.05863206 144.87597656 154.25830078 C144.78703813 151.25759539 144.36489473 149.73341212 142.78613281 147.22705078 C141.46613281 147.22705078 140.14613281 147.22705078 138.78613281 147.22705078 C138.59443523 155.56755857 139.12008957 163.59453116 140.21191406 171.85986328 C140.36017136 173.0177536 140.50842865 174.17564392 140.66117859 175.36862183 C140.97435949 177.79767049 141.2913692 180.22622835 141.61206055 182.65429688 C142.09805811 186.34768325 142.56687026 190.04297753 143.03417969 193.73876953 C143.34239401 196.11260147 143.65160511 198.48630425 143.96191406 200.85986328 C144.09954666 201.95178986 144.23717926 203.04371643 144.37898254 204.16873169 C145.2642568 210.75920935 146.65721667 216.92528344 148.78613281 223.22705078 C144.83478927 224.16136558 141.16645577 224.35048633 137.11064148 224.3473053 C136.45300098 224.34815972 135.79536048 224.34901415 135.11779147 224.34989446 C132.92216824 224.35153681 130.72662202 224.34604835 128.53100586 224.34057617 C126.95393373 224.34029401 125.37686148 224.34045261 123.79978943 224.34101868 C119.52335087 224.3413055 115.24694038 224.3354273 110.97050834 224.32844472 C106.49953081 224.32219209 102.02855264 224.32160587 97.55757141 224.32041931 C89.09331554 224.31731163 80.62907258 224.30910582 72.1648224 224.29906982 C62.52764853 224.28789121 52.89047404 224.28239383 43.2532953 224.27737439 C23.4309006 224.26692275 3.60851752 224.24933419 -16.21386719 224.22705078 C-16.21386719 223.89705078 -16.21386719 223.56705078 -16.21386719 223.22705078 C-16.76623047 223.11224365 -17.31859375 222.99743652 -17.88769531 222.87915039 C-50.16016998 216.0376264 -77.34413124 200.46904364 -95.70605469 172.27001953 C-112.17154231 146.13245384 -117.04239704 115.31640159 -110.21386719 85.22705078 C-102.62254891 56.06103807 -85.19355577 30.7059665 -59.03271484 15.27636719 C-40.3943256 4.52364276 -21.48222938 -0.12201734 0 0 Z M191.78613281 120.22705078 C192.11613281 121.21705078 192.44613281 122.20705078 192.78613281 123.22705078 C192.78613281 122.23705078 192.78613281 121.24705078 192.78613281 120.22705078 C192.45613281 120.22705078 192.12613281 120.22705078 191.78613281 120.22705078 Z M262.78613281 133.22705078 C263.78613281 136.22705078 263.78613281 136.22705078 263.78613281 136.22705078 Z M159.78613281 146.22705078 C159.45613281 148.86705078 159.12613281 151.50705078 158.78613281 154.22705078 C160.21558227 151.87266345 160.87274542 150.74672645 160.41113281 147.97705078 C160.20488281 147.39955078 159.99863281 146.82205078 159.78613281 146.22705078 Z " fill="#64748b" transform="translate(115.2138671875,9.77294921875)"/>
<path d="M0 0 C19.08172768 -0.09387646 38.16340781 -0.1641897 57.24531937 -0.20724869 C66.10747292 -0.22778244 74.96948213 -0.25572485 83.83154297 -0.30175781 C91.56513634 -0.34190957 99.29862506 -0.36749936 107.03231978 -0.37635398 C111.11874731 -0.38152134 115.20487572 -0.39346888 119.29120636 -0.42292023 C157.07680602 -0.6845477 188.90552797 6.21293006 216.6875 33.1875 C236.84551806 53.51978622 247.61195461 82.23142749 248.1875 110.625 C247.82402494 142.16655805 235.35878741 169.77929609 213.8125 192.5625 C196.7925341 209.0810111 175.8085914 217.77568577 153 223 C153 223.33 153 223.66 153 224 C113.07 224 73.14 224 32 224 C32 222.68 32 221.36 32 220 C32.66 220 33.32 220 34 220 C34.3655323 219.24678215 34.3655323 219.24678215 34.7384491 218.47834778 C35.15476089 217.66049301 35.57107269 216.84263824 36 216 C36.40837066 215.15282441 36.40837066 215.15282441 36.82499123 214.28853416 C39.70096744 208.61624184 43.07046067 202.4396038 49.32024765 200.14996719 C56.1651537 198.84082924 63.11350031 199.23420417 70.04296875 199.45703125 C72.29816406 199.47276064 74.55342045 199.48123462 76.80867004 199.48283386 C82.73108236 199.5036959 88.64865516 199.61056899 94.56958008 199.73962402 C104.02374731 199.93005988 113.47984633 199.98331292 122.93554115 200.04761314 C126.21308645 200.08121235 129.48855214 200.14783548 132.76542664 200.22090149 C157.60991762 200.64993211 179.14956466 193.64501861 197.65161133 176.38867188 C214.69938473 159.86086807 224.54257316 136.67894846 225.04345703 112.94042969 C224.96050056 91.90852336 218.50293206 71.28443492 205 55 C204.31164062 54.14921875 203.62328125 53.2984375 202.9140625 52.421875 C189.60167288 36.75458613 170.35593682 25.9657641 150 23 C147.96630264 22.90643166 145.93015662 22.85859612 143.89433289 22.84851074 C142.69272018 22.84016708 141.49110748 22.83182343 140.25308228 22.82322693 C138.29608902 22.8169503 138.29608902 22.8169503 136.29956055 22.81054688 C134.90129857 22.8025972 133.50303903 22.79420868 132.1047821 22.78541565 C129.10264994 22.76741257 126.10052295 22.75237841 123.09836388 22.73963928 C118.35507629 22.71937342 113.61184917 22.69173081 108.86860657 22.66296387 C97.95107984 22.59786671 87.03350871 22.54226724 76.11592865 22.48697662 C66.0948419 22.43615918 56.07377737 22.38334758 46.05274612 22.32245111 C41.33301774 22.29405257 36.6132968 22.27047611 31.89352548 22.25052643 C28.96644661 22.23718002 26.03940244 22.21976682 23.11235237 22.20121574 C21.09800961 22.1897076 19.08364033 22.18318397 17.0692749 22.17677307 C15.88176132 22.16842941 14.69424774 22.16008575 13.4707489 22.15148926 C11.91308571 22.14375866 11.91308571 22.14375866 10.32395458 22.13587189 C8 22 8 22 7 21 C6.40984899 17.63952227 5.85289704 14.27973516 5.36914062 10.90234375 C4.6583805 6.48397578 4.6583805 6.48397578 1.89453125 3.1171875 C1.26933594 2.74851562 0.64414063 2.37984375 0 2 C0 1.34 0 0.68 0 0 Z " fill="#64748b" transform="translate(247,10)"/>
<path d="M0 0 C1.05392944 0.00036255 1.05392944 0.00036255 2.12915039 0.00073242 C7.34336358 0.1740328 10.37054693 1.18931856 13.93359375 4.95703125 C16.40338293 8.67528529 16.29809337 12.24014615 16 16.5625 C14.17533546 20.78803893 12.13458393 22.62390038 8 24.5625 C4.99068934 24.99182783 2.03514779 24.98184469 -1 24.9375 C-1.7940625 24.94910156 -2.588125 24.96070313 -3.40625 24.97265625 C-9.4637851 24.94236857 -12.61159805 23.44808049 -17.375 19.6875 C-19 17.5625 -19 17.5625 -18.9375 15.375 C-18.628125 14.446875 -18.31875 13.51875 -18 12.5625 C-17.83371094 11.83160156 -17.66742188 11.10070312 -17.49609375 10.34765625 C-17.18865234 9.15462891 -17.18865234 9.15462891 -16.875 7.9375 C-16.68679688 7.18210938 -16.49859375 6.42671875 -16.3046875 5.6484375 C-12.9395851 0.26830372 -5.78996361 -0.01862612 0 0 Z M-18 13.5625 C-17 16.5625 -17 16.5625 -17 16.5625 Z " fill="#1CAC5D" transform="translate(396,129.4375)"/>
<path d="M0 0 C1.05392944 0.00036255 1.05392944 0.00036255 2.12915039 0.00073242 C7.34336358 0.1740328 10.37054693 1.18931856 13.93359375 4.95703125 C16.40338293 8.67528529 16.29809337 12.24014615 16 16.5625 C14.6875 19.4375 14.6875 19.4375 13 21.5625 C12.01 21.8925 11.02 22.2225 10 22.5625 C10.33 21.53125 10.66 20.5 11 19.4375 C12.29506356 14.90018513 12.50707932 11.08373795 11 6.5625 C10.34 6.5625 9.68 6.5625 9 6.5625 C8.67 5.9025 8.34 5.2425 8 4.5625 C5.39576408 4.53552863 2.79180756 4.51567511 0.1875 4.5 C-0.55048828 4.49162109 -1.28847656 4.48324219 -2.04882812 4.47460938 C-5.29922068 4.45990172 -7.89404895 4.52718298 -11 5.5625 C-13.08090202 8.25996558 -13.94580397 10.2674327 -14.5625 13.625 C-14.2812377 16.87725984 -14.2812377 16.87725984 -11 18.8125 C-9.515 19.67875 -9.515 19.67875 -8 20.5625 C-8 21.2225 -8 21.8825 -8 22.5625 C-3.05 22.5625 1.9 22.5625 7 22.5625 C7.33 23.2225 7.66 23.8825 8 24.5625 C5.10359882 24.64370751 2.20949088 24.70309421 -0.6875 24.75 C-1.50412109 24.77513672 -2.32074219 24.80027344 -3.16210938 24.82617188 C-9.3928885 24.90184935 -12.4679107 23.56151787 -17.375 19.6875 C-19 17.5625 -19 17.5625 -18.9375 15.375 C-18.628125 14.446875 -18.31875 13.51875 -18 12.5625 C-17.83371094 11.83160156 -17.66742188 11.10070312 -17.49609375 10.34765625 C-17.18865234 9.15462891 -17.18865234 9.15462891 -16.875 7.9375 C-16.68679688 7.18210938 -16.49859375 6.42671875 -16.3046875 5.6484375 C-12.9395851 0.26830372 -5.78996361 -0.01862612 0 0 Z M-18 13.5625 C-17 16.5625 -17 16.5625 -17 16.5625 Z " fill="#2F905F" transform="translate(396,129.4375)"/>
<path d="M0 0 C-1 2 -1 2 -3.93910217 3.11080933 C-8.60128352 4.31978368 -13.18471734 4.26490104 -17.97436523 4.22705078 C-18.95074448 4.22734283 -19.92712372 4.22763489 -20.93309021 4.22793579 C-24.14168362 4.22654892 -27.35004119 4.21101792 -30.55859375 4.1953125 C-32.79061252 4.19158009 -35.02263293 4.18873419 -37.25465393 4.18673706 C-43.11543337 4.17911859 -48.97611292 4.1594854 -54.83685303 4.1373291 C-60.82286223 4.1168322 -66.80888765 4.10772712 -72.79492188 4.09765625 C-84.52999169 4.07623786 -96.26498752 4.04212346 -108 4 C-108.12246094 4.63421875 -108.24492187 5.2684375 -108.37109375 5.921875 C-109 8 -109 8 -111.0625 9.25 C-111.701875 9.4975 -112.34125 9.745 -113 10 C-113.33 9.34 -113.66 8.68 -114 8 C-110.42703251 1.45186565 -110.42703251 1.45186565 -106.9104023 0.33833504 C-104.27740815 0.09723245 -101.7163854 0.06883692 -99.07250977 0.11352539 C-98.07679962 0.10274963 -97.08108948 0.09197388 -96.0552063 0.08087158 C-92.76651989 0.05348498 -89.48010023 0.07536776 -86.19140625 0.09765625 C-83.90362632 0.08826921 -81.6158571 0.07581022 -79.32810974 0.06040955 C-73.30500403 0.02813529 -67.28265822 0.03763695 -61.25952148 0.05578613 C-55.13842279 0.06690217 -49.01752334 0.03864727 -42.89648438 0.01367188 C-31.32575729 -0.02776551 -19.75545449 -0.0286002 -8.18469429 -0.00401115 C-5.45646028 0.00099795 -2.72823772 0.00138681 0 0 Z M-115 9 C-114.67 9.99 -114.34 10.98 -114 12 C-114.66 12 -115.32 12 -116 12 C-115.67 11.01 -115.34 10.02 -115 9 Z " fill="#64748b" transform="translate(403,210)"/>
<path d="M0 0 C-2.42604752 2.42604752 -4.14192776 2.75843519 -7.4375 3.625 C-8.40558594 3.88539062 -9.37367187 4.14578125 -10.37109375 4.4140625 C-13 5 -13 5 -16 5 C-16.33 5.66 -16.66 6.32 -17 7 C-18.828125 7.7890625 -18.828125 7.7890625 -21.25 8.625 C-29.63054362 11.8371392 -37.76506245 16.50470242 -44 23 C-45.64142963 24.0409066 -47.30712215 25.04504326 -49 26 C-49.99 26.66 -50.98 27.32 -52 28 C-52 25 -52 25 -50.8828125 23.5625 C-41.94829704 15.62070848 -12.56171443 -6.28085722 0 0 Z " fill="#64748b" transform="translate(91,13)"/>
<path d="M0 0 C13.86 0 27.72 0 42 0 C41.01 1.65 40.02 3.3 39 5 C38.13359316 8.61113079 38 12.29074773 38 16 C38.66 16.33 39.32 16.66 40 17 C40.72693904 18.97888961 41.39816251 20.97954558 42 23 C40.68 23 39.36 23 38 23 C37.87625 22.154375 37.7525 21.30875 37.625 20.4375 C37.07690149 16.94537647 37.07690149 16.94537647 35.8125 13.5 C34.72944997 8.83455371 35.92031786 6.15936428 38 2 C36.91992676 2.03552979 35.83985352 2.07105957 34.72705078 2.10766602 C30.72785913 2.2378299 26.72847897 2.36106206 22.72900391 2.48217773 C20.99652241 2.5356173 19.2640982 2.59094818 17.53173828 2.64819336 C15.04472202 2.73004993 12.5575805 2.80514988 10.0703125 2.87890625 C9.29317902 2.90594131 8.51604553 2.93297638 7.71536255 2.96083069 C2.22774341 3.11387171 2.22774341 3.11387171 0 2 C0 1.34 0 0.68 0 0 Z " fill="#64748b" transform="translate(338,131)"/>
<path d="M0 0 C0.66 0.33 1.32 0.66 2 1 C1.625 3.4375 1.625 3.4375 1 6 C0.01 6.495 0.01 6.495 -1 7 C-0.67 4.69 -0.34 2.38 0 0 Z M-2 7 C-1.34 7.66 -0.68 8.32 0 9 C-0.0234375 11.3828125 -0.0234375 11.3828125 -0.375 14.125 C-0.54128906 15.49011719 -0.54128906 15.49011719 -0.7109375 16.8828125 C-0.85402344 17.93082031 -0.85402344 17.93082031 -1 19 C-1.66 19 -2.32 19 -3 19 C-3.12375 20.134375 -3.2475 21.26875 -3.375 22.4375 C-3.95855812 27.04201335 -4.93071089 31.48660527 -6 36 C-6.32839571 37.40358252 -6.65649378 38.8072347 -6.984375 40.2109375 C-9.77248262 52.12168243 -9.77248262 52.12168243 -11 57 C-11.66 57 -12.32 57 -13 57 C-12.40547721 50.53420904 -11.29509743 44.44426079 -9.71484375 38.15234375 C-9.3840255 36.80638878 -9.3840255 36.80638878 -9.04652405 35.4332428 C-8.34885576 32.59997821 -7.64332139 29.76874322 -6.9375 26.9375 C-6.45976262 25.00338452 -5.9825441 23.06914081 -5.50585938 21.13476562 C-4.34322959 16.42167407 -3.1735467 11.71038459 -2 7 Z " fill="#64748b" transform="translate(232,114)"/>
<path d="M0 0 C1.85546875 0.2578125 1.85546875 0.2578125 4 1 C5.30078125 2.7421875 5.30078125 2.7421875 6.3125 4.875 C6.65925781 5.57367188 7.00601563 6.27234375 7.36328125 6.9921875 C8 9 8 9 7 12 C3 6.25 3 6.25 3 4 C1.8274869 4.95117134 0.66212985 5.91117009 -0.5 6.875 C-1.1496875 7.40867188 -1.799375 7.94234375 -2.46875 8.4921875 C-2.9740625 8.98976562 -3.479375 9.48734375 -4 10 C-4 10.66 -4 11.32 -4 12 C-6.375 14.625 -6.375 14.625 -9 17 C-9.66 17 -10.32 17 -11 17 C-11.3403125 17.804375 -11.3403125 17.804375 -11.6875 18.625 C-13.45570089 21.82460161 -15.53670203 24.29037223 -18 27 C-18.66 27 -19.32 27 -20 27 C-18.71413021 24.25270994 -17.30656157 21.95772309 -15.390625 19.609375 C-14.88563477 18.98554932 -14.38064453 18.36172363 -13.86035156 17.71899414 C-13.06322754 16.74434204 -13.06322754 16.74434204 -12.25 15.75 C-11.16575404 14.41089467 -10.08241183 13.07105706 -9 11.73046875 C-8.48179687 11.08899902 -7.96359375 10.4475293 -7.4296875 9.78662109 C-4.86822102 6.58566281 -2.4269932 3.30340742 0 0 Z " fill="#64748b" transform="translate(177,124)"/>
<path d="M0 0 C0.66 0.66 1.32 1.32 2 2 C-0.375 3.5625 -0.375 3.5625 -3 5 C-3.66 4.67 -4.32 4.34 -5 4 C-3.35 2.68 -1.7 1.36 0 0 Z M-7 5 C-6.34 5.33 -5.68 5.66 -5 6 C-11.49853581 13.97547577 -24.10965597 17.73200718 -34 19 C-34 18.34 -34 17.68 -34 17 C-32.96101563 16.62488281 -31.92203125 16.24976563 -30.8515625 15.86328125 C-18.04309329 11.92769743 -18.04309329 11.92769743 -7 5 Z " fill="#64748b" transform="translate(438,192)"/>
<path d="M0 0 C1.32 0.66 2.64 1.32 4 2 C3.195625 2.61875 2.39125 3.2375 1.5625 3.875 C-1.03874519 5.74164041 -1.03874519 5.74164041 -2 8 C-2.66 8 -3.32 8 -4 8 C-4.2475 8.61875 -4.495 9.2375 -4.75 9.875 C-6.22770762 12.38710296 -7.43955177 12.76107344 -10 14 C-10.33 14.99 -10.66 15.98 -11 17 C-11.99 16.67 -12.98 16.34 -14 16 C-13.49210937 15.5153125 -12.98421875 15.030625 -12.4609375 14.53125 C-7.79859597 9.99114215 -3.73909728 5.32538097 0 0 Z " fill="#64748b" transform="translate(456,173)"/>
<path d="M0 0 C0.33 0.66 0.66 1.32 1 2 C0.01 2.99 -0.98 3.98 -2 5 C-2 2 -2 2 0 0 Z M-4 5 C-3.67 5.99 -3.34 6.98 -3 8 C-4.3984375 10.59375 -4.3984375 10.59375 -6.375 13.5 C-9.11031037 17.53917058 -9.11031037 17.53917058 -11 22 C-11.66 22 -12.32 22 -13 22 C-13 22.99 -13 23.98 -13 25 C-13.66 24.67 -14.32 24.34 -15 24 C-11.78015054 17.26155216 -8.57447078 10.91990336 -4 5 Z " fill="#090909" transform="translate(27,51)"/>
<path d="M0 0 C0.99 0.33 1.98 0.66 3 1 C3 1.66 3 2.32 3 3 C9.27 3.33 15.54 3.66 22 4 C22.33 4.66 22.66 5.32 23 6 C20.10315842 6.10829314 17.21038981 6.18743954 14.3125 6.25 C13.08756836 6.30027344 13.08756836 6.30027344 11.83789062 6.3515625 C7.67756095 6.41893626 5.54824082 6.33630996 1.91796875 4.109375 C0 2 0 2 0 0 Z " fill="#469D6E" transform="translate(381,148)"/>
<path d="M0 0 C1.32 0.33 2.64 0.66 4 1 C3.525625 1.495 3.05125 1.99 2.5625 2.5 C-0.04494623 6.67191397 0 11.12408006 0 16 C0.66 16.33 1.32 16.66 2 17 C2.72693904 18.97888961 3.39816251 20.97954558 4 23 C2.68 23 1.36 23 0 23 C-0.12375 22.154375 -0.2475 21.30875 -0.375 20.4375 C-0.8947792 16.97250747 -0.8947792 16.97250747 -2.25 13.75 C-3.28262557 8.58687216 -1.81215339 4.84215179 0 0 Z " fill="#64748b" transform="translate(376,131)"/>
<path d="M0 0 C0.66 0 1.32 0 2 0 C0.5664488 16.8671024 0.5664488 16.8671024 -1 20 C-1.66 20 -2.32 20 -3 20 C-2.22095672 6.3667426 -2.22095672 6.3667426 0 0 Z " fill="#090909" transform="translate(6,92)"/>
<path d="M0 0 C0.66 0.33 1.32 0.66 2 1 C-0.70615034 11.74259681 -0.70615034 11.74259681 -5 15 C-1.92482916 4.44191344 -1.92482916 4.44191344 0 0 Z " fill="#64748b" transform="translate(469,146)"/>
<path d="M0 0 C-1 2 -1 2 -2.890625 2.66796875 C-10.6991046 4.38738561 -10.6991046 4.38738561 -15 3 C-11.17568051 -0.82431949 -5.15489695 -0.12572919 0 0 Z " fill="#64748b" transform="translate(107,10)"/>
<path d="M0 0 C-0.33 0.99 -0.66 1.98 -1 3 C-4.49029418 4.47666292 -8.27436386 4.07164685 -12 4 C-7.96889361 0.80291562 -5.14313574 -0.13900367 0 0 Z " fill="#328E62" transform="translate(393,130)"/>
<path d="M0 0 C0.66 0 1.32 0 2 0 C1.46148032 5.27749285 0.22656164 9.25645564 -2 14 C-3.25127906 10.45332822 -2.72285053 8.27746562 -1.5625 4.75 C-1.27503906 3.85796875 -0.98757813 2.9659375 -0.69140625 2.046875 C-0.46324219 1.37140625 -0.23507812 0.6959375 0 0 Z " fill="#64748b" transform="translate(289,111)"/>
<path d="M0 0 C2.89584583 1.29813778 4.98157613 2.53303749 7 5 C7.51171875 7.26171875 7.51171875 7.26171875 7.6875 9.6875 C7.75324219 10.49574219 7.81898438 11.30398437 7.88671875 12.13671875 C7.92410156 12.75160156 7.96148437 13.36648437 8 14 C6.86549695 11.79662631 5.91110997 9.73332991 5.125 7.375 C3.81090529 4.60080006 2.82630897 4.03631329 0 3 C0 2.01 0 1.02 0 0 Z " fill="#3D8862" transform="translate(404,131)"/>
<path d="M0 0 C0 0.99 0 1.98 0 3 C-0.99 2.67 -1.98 2.34 -3 2 C-2.01 1.34 -1.02 0.68 0 0 Z M-13 1 C-8.05 1.99 -8.05 1.99 -3 3 C-3 3.66 -3 4.32 -3 5 C-6.3125 5.25 -6.3125 5.25 -10 5 C-10.99 3.68 -11.98 2.36 -13 1 Z " fill="#64748b" transform="translate(217,170)"/>
<path d="M0 0 C0.66 0 1.32 0 2 0 C1.67 2.97 1.34 5.94 1 9 C0.01 9.33 -0.98 9.66 -2 10 C-1.34 6.7 -0.68 3.4 0 0 Z " fill="#64748b" transform="translate(279,146)"/>
<path d="M0 0 C0.99 0.495 0.99 0.495 2 1 C2 1.66 2 2.32 2 3 C3.32 2.67 4.64 2.34 6 2 C6 3.65 6 5.3 6 7 C4.125 6.875 4.125 6.875 2 6 C0.75 2.9375 0.75 2.9375 0 0 Z " fill="#64748b" transform="translate(203,127)"/>
<path d="M0 0 C2.97 0 5.94 0 9 0 C7.04783565 1.95216435 5.46800047 2.84826645 3 4 C2.01 3.34 1.02 2.68 0 2 C0 1.34 0 0.68 0 0 Z " fill="#64748b" transform="translate(247,10)"/>
<path d="M0 0 C1 3 1 3 0.22265625 5.04296875 C-0.16019531 5.75066406 -0.54304687 6.45835938 -0.9375 7.1875 C-1.31777344 7.90292969 -1.69804687 8.61835937 -2.08984375 9.35546875 C-2.54037109 10.16951172 -2.54037109 10.16951172 -3 11 C-4.3968009 6.80959731 -2.86445675 4.87233324 -1 1 C-0.67 0.67 -0.34 0.34 0 0 Z " fill="#64748b" transform="translate(12,77)"/>
<path d="M0 0 C1.17539996 0.92652701 2.34010577 1.86663387 3.5 2.8125 C4.1496875 3.33457031 4.799375 3.85664062 5.46875 4.39453125 C7 6 7 6 7 9 C5 7.625 5 7.625 3 6 C3 5.34 3 4.68 3 4 C2.01 3.67 1.02 3.34 0 3 C0 2.01 0 1.02 0 0 Z " fill="#070707" transform="translate(460,41)"/>
<path d="M0 0 C0.66 0.33 1.32 0.66 2 1 C2 1.99 2 2.98 2 4 C-0.97 3.67 -3.94 3.34 -7 3 C-3 1 -3 1 0 0 Z " fill="#29A45B" transform="translate(405,149)"/>
<path d="M0 0 C0 0.99 0 1.98 0 3 C-1.32 3.33 -2.64 3.66 -4 4 C-4 3.34 -4 2.68 -4 2 C-4.99 1.67 -5.98 1.34 -7 1 C-4.53721199 -0.231394 -2.7204945 -0.07159196 0 0 Z " fill="#64748b" transform="translate(241,10)"/>
<path d="M0 0 C0.33 0 0.66 0 1 0 C1 1.98 1 3.96 1 6 C0.67 6 0.34 6 0 6 C0 4.02 0 2.04 0 0 Z " fill="#64748b" transform="translate(255,171)"/>
<path d="M0 0 C1.98 0.99 1.98 0.99 4 2 C2.68 2 1.36 2 0 2 C0 1.34 0 0.68 0 0 Z " fill="#64748b" transform="translate(338,128)"/>
<path d="M0 0 C0.66 0.66 1.32 1.32 2 2 C1.01 2.495 1.01 2.495 0 3 C0 2.01 0 1.02 0 0 Z " fill="#64748b" transform="translate(249,126)"/>
<path d="M0 0 C3 1 3 1 3 1 Z " fill="#64748b" transform="translate(344,129)"/>
<path d="" fill="#64748b" transform="translate(0,0)"/>
<path d="" fill="#64748b" transform="translate(0,0)"/>
<path d="" fill="#64748b" transform="translate(0,0)"/>
<path d="M0 0 C2 1 2 1 2 1 Z " fill="#64748b" transform="translate(212,171)"/>
<path d="M0 0 C2 1 2 1 2 1 Z " fill="#64748b" transform="translate(208,171)"/>
<path d="" fill="#64748b" transform="translate(0,0)"/>
<path d="M0 0 C2 1 2 1 2 1 Z " fill="#64748b" transform="translate(154,149)"/>
<path d="" fill="#64748b" transform="translate(0,0)"/>
<path d="" fill="#64748b" transform="translate(0,0)"/>
<path d="" fill="#64748b" transform="translate(0,0)"/>
<path d="" fill="#64748b" transform="translate(0,0)"/>
<path d="" fill="#64748b" transform="translate(0,0)"/>
<path d="" fill="#64748b" transform="translate(0,0)"/>
<path d="" fill="#64748b" transform="translate(0,0)"/>
<path d="" fill="#64748b" transform="translate(0,0)"/>
<path d="" fill="#64748b" transform="translate(0,0)"/>
<path d="" fill="#64748b" transform="translate(0,0)"/>
<path d="" fill="#64748b" transform="translate(0,0)"/>
<path d="" fill="#64748b" transform="translate(0,0)"/>
<path d="" fill="#64748b" transform="translate(0,0)"/>
<path d="" fill="#64748b" transform="translate(0,0)"/>
<path d="" fill="#64748b" transform="translate(0,0)"/>
<path d="" fill="#64748b" transform="translate(0,0)"/>
<path d="" fill="#64748b" transform="translate(0,0)"/>
<path d="" fill="#64748b" transform="translate(0,0)"/>
<path d="" fill="#64748b" transform="translate(0,0)"/>
<path d="" fill="#64748b" transform="translate(0,0)"/>
<path d="" fill="#64748b" transform="translate(0,0)"/>
<path d="" fill="#64748b" transform="translate(0,0)"/>
<path d="" fill="#64748b" transform="translate(0,0)"/>
<path d="" fill="#64748b" transform="translate(0,0)"/>
<path d="" fill="#64748b" transform="translate(0,0)"/>
<path d="" fill="#64748b" transform="translate(0,0)"/>
<path d="" fill="#64748b" transform="translate(0,0)"/>
<path d="" fill="#64748b" transform="translate(0,0)"/>
<path d="" fill="#64748b" transform="translate(0,0)"/>
</svg>
